<?xml version="1.0" encoding="UTF-8" standalone="no"?>
<!DOCTYPE svg PUBLIC "-//W3C//DTD SVG 1.1//EN" "http://www.w3.org/Graphics/SVG/1.1/DTD/svg11.dtd">
<svg version="1.1" xmlns="http://www.w3.org/2000/svg" xmlns:xlink="http://www.w3.org/1999/xlink" preserveAspectRatio="xMidYMid meet" viewBox="0 0 640 640" width="640" height="640"><defs><path d="M249.65 150.93C239 179.83 230.34 204.2 230.34 205.13C230.34 207.79 233.01 207.26 242.99 202.2C248.19 199.67 254.85 197.14 258.04 196.74C258.41 196.68 260.28 196.37 263.63 195.81L263.63 229.36L263.63 262.79L230.21 262.79L196.79 262.79C197.26 259.75 197.53 258.07 197.58 257.73C198.12 255.07 200.78 248.01 203.71 242.15C207.04 235.62 208.5 231.1 207.84 230.43C206.51 229.1 104.5 265.72 99.97 269.05C98.51 270.11 98.24 271.04 99.18 271.98C102.11 274.91 206.51 312.46 207.97 310.99C208.77 310.2 207.97 307.4 205.31 302.6C201.85 296.35 197.05 283.16 197.05 279.83C197.05 279.3 212.1 278.77 230.34 278.77C232.56 278.77 243.66 278.77 263.63 278.77L263.63 310.86L263.63 343.09C260.68 342.61 259.04 342.34 258.71 342.29C255.91 341.76 248.99 339.09 243.39 336.3C237.4 333.23 232.47 331.5 231.54 332.17C230.34 332.83 234.87 346.55 248.85 384.9C269.09 439.63 269.63 441.23 271.62 441.23C273.62 441.23 275.62 436.3 294.93 383.57C308.78 345.75 313.04 332.97 311.71 332.17C310.77 331.5 305.98 333.23 299.85 336.3C294.26 339.09 287.34 341.76 284.67 342.29C284.34 342.34 282.65 342.61 279.61 343.09L279.61 310.86L279.61 278.77L312.11 278.77L344.6 278.77C343.88 282.12 343.48 283.99 343.4 284.36C342.73 287.56 339.94 294.48 337.27 299.81C334.21 306.07 332.88 309.93 333.81 310.86C334.61 311.66 353.25 305.4 387.21 292.88C415.97 282.23 439.94 273.31 440.74 272.78C444.21 270.65 441.41 268.12 431.82 264.39C379.09 244.41 335.28 229.23 333.94 230.56C332.88 231.63 333.55 234.03 336.48 239.75C339.67 245.74 344.86 259.73 344.86 262.39C344.86 262.66 330.22 262.79 312.24 262.79C310.06 262.79 299.19 262.79 279.61 262.79C279.61 242.81 279.61 231.72 279.61 229.5C279.61 197.01 279.61 196.21 282.28 196.21C286.41 196.21 299.06 200.87 303.45 204.06C307.45 206.99 310.91 207.66 312.11 205.79C312.77 204.73 275.89 102.72 273.62 99C272.96 97.8 268.96 97 268.96 98.06C268.96 98.33 260.3 122.17 249.65 150.93Z" id="fEKHo2B5l"></path><path d="M293.04 14.61L303.45 15.66L313.73 17.13L323.88 19L333.89 21.26L343.74 23.9L353.44 26.92L362.97 30.3L372.32 34.04L381.49 38.14L390.47 42.57L399.25 47.34L407.82 52.44L416.17 57.85L424.3 63.57L432.19 69.59L439.84 75.9L447.23 82.5L454.38 89.38L461.25 96.52L467.85 103.91L474.16 111.56L480.18 119.45L485.9 127.58L491.31 135.93L496.41 144.5L501.18 153.28L505.61 162.26L509.71 171.43L513.45 180.78L516.84 190.31L519.85 200.01L522.49 209.86L524.75 219.87L526.62 230.02L528.09 240.3L529.14 250.71L529.78 261.24L530 271.87L529.96 276.52L529.84 281.15L529.63 285.76L529.35 290.35L528.98 294.92L528.54 299.46L528.02 303.98L527.42 308.48L526.74 312.95L525.99 317.39L525.16 321.81L524.26 326.2L523.29 330.57L522.24 334.91L521.11 339.21L519.92 343.49L518.65 347.74L517.32 351.96L515.91 356.14L514.44 360.3L512.89 364.42L511.28 368.5L509.6 372.56L507.86 376.57L506.05 380.55L504.17 384.5L502.24 388.4L500.23 392.27L498.17 396.1L496.04 399.9L493.85 403.65L491.6 407.36L489.29 411.03L486.92 414.66L484.49 418.24L482.01 421.78L479.46 425.28L476.87 428.73L474.21 432.14L471.5 435.5L618.75 582.75L619.48 583.5L620.18 584.28L620.83 585.07L621.45 585.89L622.03 586.73L622.58 587.58L623.08 588.45L623.55 589.34L623.98 590.24L624.38 591.15L624.73 592.08L625.05 593.01L625.33 593.96L625.58 594.91L625.78 595.88L625.95 596.84L626.08 597.82L626.18 598.79L626.23 599.77L626.25 600.75L626.23 601.73L626.18 602.71L626.08 603.68L625.95 604.66L625.78 605.62L625.58 606.59L625.33 607.54L625.05 608.49L624.73 609.42L624.38 610.35L623.98 611.26L623.55 612.16L623.08 613.05L622.57 613.92L622.03 614.77L621.45 615.61L620.83 616.43L620.18 617.22L619.48 618L618.75 618.75L617.99 619.48L617.21 620.18L616.4 620.83L615.58 621.45L614.74 622.03L613.88 622.58L613 623.08L612.11 623.55L611.21 623.98L610.29 624.38L609.37 624.73L608.43 625.05L607.48 625.33L606.52 625.58L605.56 625.78L604.59 625.95L603.62 626.08L602.65 626.18L601.67 626.23L600.69 626.25L599.71 626.23L598.73 626.18L597.75 626.08L596.78 625.95L595.81 625.78L594.85 625.58L593.9 625.33L592.95 625.05L592.01 624.73L591.08 624.38L590.17 623.98L589.26 623.55L588.37 623.08L587.5 622.57L586.64 622.03L585.8 621.45L584.97 620.83L584.17 620.18L583.39 619.48L582.63 618.75L435.38 471.63L432.01 474.33L428.61 476.99L425.16 479.59L421.66 482.13L418.12 484.61L414.54 487.04L410.91 489.4L407.25 491.71L403.54 493.96L399.79 496.14L396 498.27L392.18 500.33L388.31 502.33L384.41 504.26L380.47 506.14L376.49 507.94L372.48 509.68L368.43 511.35L364.35 512.96L360.23 514.5L356.09 515.97L351.91 517.37L347.69 518.7L343.45 519.96L339.18 521.15L334.87 522.27L330.54 523.32L326.18 524.29L321.79 525.19L317.37 526.01L312.93 526.76L308.46 527.43L303.97 528.03L299.45 528.55L294.91 528.99L290.35 529.35L285.76 529.63L281.15 529.84L276.52 529.96L271.88 530L261.23 529.78L250.7 529.14L240.28 528.09L229.99 526.62L219.83 524.75L209.82 522.49L199.96 519.85L190.26 516.84L180.73 513.45L171.37 509.71L162.2 505.61L153.22 501.18L144.44 496.41L135.88 491.31L127.53 485.9L119.4 480.18L111.51 474.16L103.86 467.85L96.47 461.25L89.33 454.38L82.46 447.23L75.86 439.84L69.55 432.19L63.53 424.3L57.82 416.17L52.41 407.82L47.32 399.25L42.55 390.47L38.12 381.49L34.03 372.32L30.28 362.97L26.9 353.44L23.89 343.74L21.25 333.89L18.99 323.88L17.13 313.73L15.66 303.45L14.61 293.04L13.97 282.51L13.75 271.88L13.97 261.24L14.61 250.71L15.66 240.3L17.13 230.02L18.99 219.87L21.25 209.86L23.89 200.01L26.9 190.31L30.28 180.78L34.03 171.43L38.12 162.26L42.55 153.28L47.32 144.5L52.41 135.93L57.82 127.58L63.53 119.46L69.55 111.56L75.86 103.91L82.46 96.52L89.33 89.38L96.47 82.5L103.86 75.9L111.51 69.59L119.4 63.57L127.53 57.85L135.88 52.44L144.44 47.34L153.22 42.57L162.2 38.14L171.37 34.04L180.73 30.3L190.26 26.92L199.96 23.9L209.82 21.26L219.83 19L229.99 17.13L240.28 15.66L250.7 14.61L261.23 13.97L271.88 13.75L282.51 13.97L293.04 14.61ZM254.93 65.69L246.59 66.54L238.35 67.71L230.22 69.21L222.2 71.03L214.31 73.15L206.54 75.57L198.9 78.29L191.4 81.29L184.06 84.58L176.86 88.14L169.83 91.97L162.96 96.06L156.27 100.4L149.75 104.99L143.43 109.82L137.3 114.88L131.36 120.18L125.64 125.69L120.13 131.41L114.84 137.35L109.78 143.48L104.95 149.81L100.36 156.32L96.03 163.01L91.94 169.88L88.12 176.92L84.56 184.11L81.28 191.46L78.27 198.95L75.56 206.58L73.14 214.35L71.02 222.24L69.21 230.26L67.71 238.38L66.54 246.61L65.69 254.94L65.17 263.37L65 271.88L65.17 280.38L65.69 288.81L66.54 297.14L67.71 305.37L69.21 313.49L71.02 321.5L73.14 329.39L75.56 337.15L78.27 344.78L81.28 352.27L84.56 359.62L88.12 366.81L91.94 373.84L96.03 380.7L100.36 387.39L104.95 393.9L109.78 400.22L114.84 406.35L120.13 412.28L125.64 418L131.36 423.51L137.3 428.79L143.43 433.85L149.75 438.68L156.27 443.27L162.96 447.6L169.83 451.69L176.86 455.51L184.06 459.07L191.4 462.35L198.9 465.35L206.54 468.07L214.31 470.49L222.2 472.61L230.22 474.42L238.35 475.91L246.59 477.09L254.93 477.94L263.36 478.45L271.88 478.63L280.38 478.45L288.81 477.94L297.14 477.09L305.37 475.91L313.49 474.42L321.51 472.61L329.4 470.49L337.17 468.07L344.8 465.35L352.29 462.35L359.64 459.07L366.83 455.51L373.87 451.69L380.74 447.6L387.43 443.27L393.94 438.68L400.27 433.85L406.4 428.79L412.34 423.51L418.06 418L423.57 412.28L428.87 406.35L433.93 400.22L438.76 393.9L443.35 387.39L447.69 380.7L451.78 373.84L455.61 366.81L459.17 359.62L462.46 352.27L465.46 344.78L468.18 337.15L470.6 329.39L472.72 321.5L474.54 313.49L476.04 305.37L477.21 297.14L478.06 288.81L478.58 280.38L478.75 271.88L478.58 263.37L478.06 254.94L477.21 246.61L476.04 238.38L474.54 230.26L472.72 222.24L470.6 214.35L468.18 206.58L465.46 198.95L462.46 191.46L459.17 184.11L455.61 176.92L451.78 169.88L447.69 163.01L443.35 156.32L438.76 149.81L433.93 143.48L428.87 137.35L423.57 131.41L418.06 125.69L412.34 120.18L406.4 114.88L400.27 109.82L393.94 104.99L387.43 100.4L380.74 96.06L373.87 91.97L366.83 88.14L359.64 84.58L352.29 81.29L344.8 78.29L337.17 75.57L329.4 73.15L321.51 71.03L313.49 69.21L305.37 67.71L297.14 66.54L288.81 65.69L280.38 65.17L271.88 65L263.36 65.17L254.93 65.69Z" id="bYBAe1WJw"></path></defs><g><g><g><g><use xlink:href="#fEKHo2B5l" opacity="1" fill="#000000" fill-opacity="1"></use><g><use xlink:href="#fEKHo2B5l" opacity="1" fill-opacity="0" stroke="#000000" stroke-width="1" stroke-opacity="0"></use></g></g><g><use xlink:href="#bYBAe1WJw" opacity="1" fill="#000000" fill-opacity="1"></use><g><use xlink:href="#bYBAe1WJw" opacity="1" fill-opacity="0" stroke="#000000" stroke-width="1" stroke-opacity="0"></use></g></g></g></g></g></svg>